<svg width="24" height="24" viewBox="0 0 24 24" fill="none" xmlns="http://www.w3.org/2000/svg">
<rect width="24" height="24" rx="6" fill="white"/>
<path d="M13.6311 6H10.1565C10.0403 6 9.94731 6.09373 9.94477 6.21023C9.87459 9.48497 8.16738 12.5931 5.22894 14.7946C5.13565 14.8644 5.1144 14.9957 5.1826 15.0903L7.21557 17.9113C7.28474 18.0073 7.41949 18.029 7.51435 17.9585C9.35166 16.5909 10.8295 14.9412 11.8938 13.1127C12.958 14.9412 14.436 16.5909 16.2733 17.9585C16.3681 18.029 16.5028 18.0073 16.5721 17.9113L18.6051 15.0903C18.6732 14.9957 18.6519 14.8644 18.5587 14.7946C15.6202 12.5931 13.913 9.48497 13.8429 6.21023C13.8404 6.09373 13.7472 6 13.6311 6Z" fill="#FF875B"/>
</svg>
