<svg width="24" height="24" viewBox="0 0 24 24" fill="none" xmlns="http://www.w3.org/2000/svg">
<rect width="24" height="24" rx="6" fill="#2C5FF6"/>
<path fill-rule="evenodd" clip-rule="evenodd" d="M11.9996 20.4C16.6388 20.4 20.3996 16.6392 20.3996 12C20.3996 7.36078 16.6388 3.59998 11.9996 3.59998C7.36042 3.59998 3.59961 7.36078 3.59961 12C3.59961 16.6392 7.36042 20.4 11.9996 20.4ZM10.0073 9.2571C9.59304 9.2571 9.25725 9.59288 9.25725 10.0071V13.9928C9.25725 14.407 9.59304 14.7428 10.0073 14.7428H13.993C14.4072 14.7428 14.743 14.407 14.743 13.9928V10.0071C14.743 9.59288 14.4072 9.2571 13.993 9.2571H10.0073Z" fill="white"/>
</svg>
