<svg width="24" height="24" viewBox="0 0 24 24" fill="none" xmlns="http://www.w3.org/2000/svg">
<rect width="24" height="24" rx="6" fill="url(#paint0_linear_208_2399)"/>
<path d="M12.1651 17.7368C8.36366 18.0572 4.83922 15.8307 4.56224 12.3714C4.30702 9.52031 6.12626 8.293 7.56537 8.18438C8.20702 8.09131 8.85971 8.25191 9.38489 8.63213C9.91009 9.01233 10.2665 9.58222 10.3784 10.2209C10.4816 11.3558 9.74304 11.8935 9.22713 11.9315C9.0052 11.9614 8.78035 11.9039 8.6 11.7712C8.41964 11.6385 8.29791 11.4409 8.26049 11.2201C8.22246 10.7802 8.40169 10.7205 8.34737 10.2589C8.33404 10.1162 8.29031 9.97796 8.21915 9.85353C8.14797 9.72911 8.05102 9.62138 7.93475 9.53753C7.81851 9.45369 7.68566 9.39569 7.54515 9.36742C7.40462 9.33916 7.25969 9.34129 7.12006 9.37369C6.63131 9.41171 5.72982 9.97649 5.84386 11.3721C5.95791 12.7678 7.36444 13.8919 9.18911 13.7236C10.1331 13.6546 11.0155 13.2289 11.657 12.533C12.2985 11.837 12.651 10.923 12.643 9.97649C12.6429 9.86693 12.669 9.75898 12.719 9.66151C12.7419 9.62367 12.7673 9.5874 12.795 9.55289C12.8437 9.47667 12.9001 9.40569 12.9634 9.34111L13.1426 9.16189C14.0006 8.37989 17.1178 6.50091 20.0449 7.0874C20.0662 7.08138 20.0887 7.08138 20.11 7.0874C20.2241 7.0874 20.2892 7.16344 20.3001 7.27749C20.7617 14.1309 16.2326 17.3784 12.1651 17.7368Z" fill="white"/>
<defs>
<linearGradient id="paint0_linear_208_2399" x1="23.3454" y1="0.76178" x2="0.0426867" y2="23.9809" gradientUnits="userSpaceOnUse">
<stop stop-color="#11C4D1"/>
<stop offset="1" stop-color="#0062AD"/>
</linearGradient>
</defs>
</svg>
