<svg width="24" height="24" viewBox="0 0 24 24" fill="none" xmlns="http://www.w3.org/2000/svg">
<rect width="24" height="24" rx="6" fill="white"/>
<path d="M20.6467 2.67419L13.1514 8.24105L14.5374 4.95668L20.6467 2.67419Z" fill="#E2761B" stroke="#E2761B" stroke-width="0.0878845" stroke-linecap="round" stroke-linejoin="round"/>
<path d="M3.34473 2.67419L10.7798 8.29378L9.46149 4.95668L3.34473 2.67419Z" fill="#E4761B" stroke="#E4761B" stroke-width="0.0878845" stroke-linecap="round" stroke-linejoin="round"/>
<path d="M17.9513 15.5781L15.9551 18.6365L20.2263 19.8116L21.4541 15.6459L17.9513 15.5781Z" fill="#E4761B" stroke="#E4761B" stroke-width="0.0878845" stroke-linecap="round" stroke-linejoin="round"/>
<path d="M2.55371 15.6459L3.77405 19.8116L8.04524 18.6365L6.049 15.5781L2.55371 15.6459Z" fill="#E4761B" stroke="#E4761B" stroke-width="0.0878845" stroke-linecap="round" stroke-linejoin="round"/>
<path d="M7.80349 10.4107L6.61328 12.211L10.8543 12.3994L10.7037 7.84192L7.80349 10.4107Z" fill="#E4761B" stroke="#E4761B" stroke-width="0.0878845" stroke-linecap="round" stroke-linejoin="round"/>
<path d="M16.1871 10.4107L13.2493 7.78918L13.1514 12.3994L17.3849 12.211L16.1871 10.4107Z" fill="#E4761B" stroke="#E4761B" stroke-width="0.0878845" stroke-linecap="round" stroke-linejoin="round"/>
<path d="M8.04492 18.6366L10.5911 17.3937L8.39144 15.6761L8.04492 18.6366Z" fill="#E4761B" stroke="#E4761B" stroke-width="0.0878845" stroke-linecap="round" stroke-linejoin="round"/>
<path d="M13.4014 17.3935L15.955 18.6365L15.601 15.676L13.4014 17.3935Z" fill="#E4761B" stroke="#E4761B" stroke-width="0.0878845" stroke-linecap="round" stroke-linejoin="round"/>
<path d="M15.956 18.6365L13.4023 17.3936L13.6057 19.0583L13.5831 19.7589L15.956 18.6365Z" fill="#D7C1B3" stroke="#D7C1B3" stroke-width="0.0878845" stroke-linecap="round" stroke-linejoin="round"/>
<path d="M8.0459 18.6365L10.4188 19.7589L10.4037 19.0583L10.592 17.3936L8.0459 18.6365Z" fill="#D7C1B3" stroke="#D7C1B3" stroke-width="0.0878845" stroke-linecap="round" stroke-linejoin="round"/>
<path d="M10.4553 14.5762L8.33105 13.951L9.83011 13.2655L10.4553 14.5762Z" fill="#233447" stroke="#233447" stroke-width="0.0878845" stroke-linecap="round" stroke-linejoin="round"/>
<path d="M13.5371 14.5762L14.1623 13.2655L15.6689 13.951L13.5371 14.5762Z" fill="#233447" stroke="#233447" stroke-width="0.0878845" stroke-linecap="round" stroke-linejoin="round"/>
<path d="M8.04506 18.6366L8.40664 15.5782L6.04883 15.646L8.04506 18.6366Z" fill="#CD6116" stroke="#CD6116" stroke-width="0.0878845" stroke-linecap="round" stroke-linejoin="round"/>
<path d="M15.5928 15.5782L15.9544 18.6366L17.9506 15.646L15.5928 15.5782Z" fill="#CD6116" stroke="#CD6116" stroke-width="0.0878845" stroke-linecap="round" stroke-linejoin="round"/>
<path d="M17.3859 12.2109L13.1523 12.3993L13.5441 14.5763L14.1693 13.2656L15.6759 13.951L17.3859 12.2109Z" fill="#CD6116" stroke="#CD6116" stroke-width="0.0878845" stroke-linecap="round" stroke-linejoin="round"/>
<path d="M8.3308 13.951L9.83739 13.2656L10.4551 14.5763L10.8543 12.3993L6.61328 12.2109L8.3308 13.951Z" fill="#CD6116" stroke="#CD6116" stroke-width="0.0878845" stroke-linecap="round" stroke-linejoin="round"/>
<path d="M6.61328 12.2109L8.39106 15.6761L8.33079 13.951L6.61328 12.2109Z" fill="#E4751F" stroke="#E4751F" stroke-width="0.0878845" stroke-linecap="round" stroke-linejoin="round"/>
<path d="M15.6759 13.951L15.6006 15.6761L17.3859 12.2109L15.6759 13.951Z" fill="#E4751F" stroke="#E4751F" stroke-width="0.0878845" stroke-linecap="round" stroke-linejoin="round"/>
<path d="M10.8543 12.3993L10.4551 14.5763L10.9523 17.1451L11.0652 13.7628L10.8543 12.3993Z" fill="#E4751F" stroke="#E4751F" stroke-width="0.0878845" stroke-linecap="round" stroke-linejoin="round"/>
<path d="M13.1526 12.3993L12.9492 13.7552L13.0396 17.1451L13.5443 14.5763L13.1526 12.3993Z" fill="#E4751F" stroke="#E4751F" stroke-width="0.0878845" stroke-linecap="round" stroke-linejoin="round"/>
<path d="M13.5438 14.5763L13.0391 17.145L13.4006 17.3936L15.6003 15.6761L15.6756 13.951L13.5438 14.5763Z" fill="#F6851B" stroke="#F6851B" stroke-width="0.0878845" stroke-linecap="round" stroke-linejoin="round"/>
<path d="M8.33105 13.951L8.39132 15.6761L10.5909 17.3936L10.9525 17.145L10.4553 14.5763L8.33105 13.951Z" fill="#F6851B" stroke="#F6851B" stroke-width="0.0878845" stroke-linecap="round" stroke-linejoin="round"/>
<path d="M13.5816 19.759L13.6042 19.0584L13.4159 18.8927H10.576L10.4027 19.0584L10.4178 19.759L8.04492 18.6366L8.87355 19.3146L10.5534 20.4822H13.4385L15.1259 19.3146L15.9545 18.6366L13.5816 19.759Z" fill="#C0AD9E" stroke="#C0AD9E" stroke-width="0.0878845" stroke-linecap="round" stroke-linejoin="round"/>
<path d="M13.4005 17.3936L13.0389 17.145H10.9522L10.5907 17.3936L10.4023 19.0584L10.5756 18.8927H13.4155L13.6039 19.0584L13.4005 17.3936Z" fill="#161616" stroke="#161616" stroke-width="0.0878845" stroke-linecap="round" stroke-linejoin="round"/>
<path d="M20.9645 8.60263L21.6048 5.52919L20.6481 2.67419L13.4014 8.05273L16.1886 10.4105L20.1283 11.5631L21.0021 10.5461L20.6255 10.2749L21.2281 9.72504L20.7611 9.36346L21.3637 8.90395L20.9645 8.60263Z" fill="#763D16" stroke="#763D16" stroke-width="0.0878845" stroke-linecap="round" stroke-linejoin="round"/>
<path d="M2.39551 5.52919L3.03581 8.60263L2.62903 8.90395L3.23167 9.36346L2.77216 9.72504L3.37479 10.2749L2.99814 10.5461L3.86443 11.5631L7.80417 10.4105L10.5914 8.05273L3.34466 2.67419L2.39551 5.52919Z" fill="#763D16" stroke="#763D16" stroke-width="0.0878845" stroke-linecap="round" stroke-linejoin="round"/>
<path d="M20.1279 11.5631L16.1882 10.4105L17.3859 12.2109L15.6006 15.6761L17.9509 15.6459H21.4537L20.1279 11.5631Z" fill="#F6851B" stroke="#F6851B" stroke-width="0.0878845" stroke-linecap="round" stroke-linejoin="round"/>
<path d="M7.80418 10.4105L3.86445 11.5631L2.55371 15.6459H6.049L8.39175 15.6761L6.61397 12.2109L7.80418 10.4105Z" fill="#F6851B" stroke="#F6851B" stroke-width="0.0878845" stroke-linecap="round" stroke-linejoin="round"/>
<path d="M13.1511 12.3992L13.3997 8.05271L14.5447 4.95667H9.45996L10.5899 8.05271L10.8536 12.3992L10.944 13.7702L10.9515 17.145H13.0381L13.0532 13.7702L13.1511 12.3992Z" fill="#F6851B" stroke="#F6851B" stroke-width="0.0878845" stroke-linecap="round" stroke-linejoin="round"/>
</svg>
