<svg width="24" height="24" viewBox="0 0 24 24" fill="none" xmlns="http://www.w3.org/2000/svg">
<rect width="24" height="24" rx="6" fill="white"/>
<path d="M6 5.14288L8.16875 7.40066C9.04713 6.66884 10.1039 6.20642 11.2204 6.0653C12.337 5.92417 13.4692 6.10991 14.4901 6.60167C15.511 7.09344 16.3802 7.87179 17.0001 8.84942C17.6201 9.82704 17.9663 10.9653 18 12.1365V12.3207V19.7143L15.8342 17.4566C14.9566 18.1892 13.9004 18.6526 12.784 18.7946C11.6677 18.9366 10.5355 18.7517 9.51441 18.2607C8.49335 17.7696 7.62389 16.9918 7.00361 16.0146C6.38333 15.0373 6.03679 13.8993 6.00288 12.7282V12.544L6 5.14288ZM7.48274 8.87189V12.5365C7.48307 13.399 7.70838 14.2453 8.13459 14.9847C8.5608 15.7242 9.17189 16.3291 9.90253 16.7349C10.6332 17.1406 11.4559 17.3319 12.2828 17.2883C13.1098 17.2446 13.9098 16.9677 14.5973 16.4872L14.7153 16.4033L7.77182 9.17303L7.48274 8.87189ZM9.40556 8.36999L9.28763 8.45539L16.2297 15.6842L16.5173 15.9838V12.3207C16.5171 11.4585 16.292 10.6125 15.866 9.87313C15.4401 9.13382 14.8293 8.52897 14.0989 8.12324C13.3685 7.71751 12.5461 7.52615 11.7194 7.56961C10.8928 7.61307 10.093 7.88972 9.40556 8.36999Z" fill="#23262F"/>
</svg>
