<svg width="24" height="24" viewBox="0 0 24 24" fill="none" xmlns="http://www.w3.org/2000/svg">
<rect width="24" height="24" rx="6" fill="black"/>
<path d="M18.8297 8.36758C18.492 7.6941 17.9456 7.14774 17.2721 6.81006C16.5333 6.43994 15.5691 6.43994 13.64 6.43994C13.2492 6.43994 12.3164 6.43994 11.9998 6.43994C11.6832 6.43994 10.7489 6.43994 10.3596 6.43994C8.43404 6.43994 7.46628 6.43994 6.72744 6.81006C6.05396 7.14754 5.5078 7.69394 5.1706 8.36758C4.79976 9.10642 4.7998 10.0706 4.7998 11.999C4.7998 13.9273 4.79976 14.8923 5.1706 15.6311C5.5078 16.3047 6.05396 16.8511 6.72744 17.1886C7.46628 17.5587 8.43116 17.5587 10.3596 17.5587C10.7504 17.5587 11.6832 17.5587 11.9998 17.5587C12.3164 17.5587 13.2507 17.5587 13.64 17.5587C15.5656 17.5587 16.5333 17.5587 17.2721 17.1886C17.9456 16.8509 18.492 16.3046 18.8297 15.6311C19.1998 14.8923 19.1998 13.9281 19.1998 11.999C19.1998 10.0699 19.1998 9.10642 18.8297 8.36758Z" fill="#FFCEAA"/>
<path d="M8.74152 14.0137C8.65216 13.8383 8.51612 13.6909 8.3484 13.5879C8.18068 13.4848 7.98776 13.4301 7.79088 13.4296H6.66912C6.55428 13.4302 6.44088 13.4548 6.33612 13.5019C6.2314 13.549 6.13772 13.6175 6.06112 13.7031C5.98452 13.7886 5.92668 13.8893 5.89136 13.9985C5.85604 14.1078 5.84404 14.2233 5.85612 14.3375C5.89464 14.699 5.9574 14.9736 6.06224 15.1825C6.3044 15.6629 6.69436 16.0529 7.17476 16.2951C7.52704 16.4719 8.0662 16.5304 8.897 16.5497C9.01584 16.5525 9.13336 16.5243 9.23804 16.4681C9.34272 16.4118 9.43096 16.3293 9.49416 16.2286C9.55736 16.1279 9.59332 16.0126 9.59852 15.8938C9.60376 15.7751 9.57804 15.6571 9.52388 15.5512L8.74152 14.0137Z" fill="#FF3B9A"/>
<path d="M7.22406 12.5025C7.59342 12.5024 7.95734 12.4134 8.28494 12.2428C8.61254 12.0722 8.89418 11.8252 9.10606 11.5226L10.1936 9.97009C10.3898 9.68997 10.5129 9.36533 10.5517 9.02557C10.5906 8.68581 10.544 8.34177 10.4161 8.02461V8.01533C10.3559 7.86217 10.2557 7.72797 10.126 7.62661C9.99634 7.52529 9.8419 7.46053 9.67874 7.43909C8.38862 7.44337 7.62838 7.47545 7.17554 7.70297C6.69414 7.94341 6.30378 8.33353 6.06302 8.81477C5.86834 9.20985 5.80842 10.3202 5.79414 11.2202C5.79122 11.3879 5.82174 11.5544 5.8839 11.7101C5.94606 11.8658 6.03866 12.0076 6.15626 12.1271C6.27386 12.2466 6.4141 12.3415 6.56878 12.4062C6.72346 12.4709 6.8895 12.5041 7.05714 12.5039L7.22406 12.5025Z" fill="#FF3B9A"/>
<path d="M17.9877 8.81418C17.7458 8.33454 17.356 7.9455 16.8758 7.7045C16.3952 7.46346 15.5701 7.44206 14.1331 7.43994C12.1862 7.43994 11.5807 9.67994 11.165 10.2733L9.94184 12.0198C9.7454 12.3003 9.62876 12.6289 9.6044 12.9706C9.58004 13.3122 9.64884 13.654 9.80352 13.9596L10.7099 15.7525C10.8333 15.9972 11.0227 16.2025 11.2568 16.345C11.4909 16.4876 11.7602 16.5617 12.0343 16.5591H12.0592C12.3794 16.5591 13.3664 16.5591 13.6909 16.5591C15.4025 16.5591 16.3481 16.559 16.8758 16.2952C17.3562 16.0532 17.746 15.6631 17.9877 15.1827C18.2523 14.6549 18.2522 13.7114 18.2522 11.9977C18.2522 10.284 18.2523 9.34478 17.9877 8.81418Z" fill="#FF3B9A"/>
</svg>
