<svg width="24" height="24" viewBox="0 0 24 24" fill="none" xmlns="http://www.w3.org/2000/svg">
<rect width="24" height="24" rx="6" fill="white"/>
<path fill-rule="evenodd" clip-rule="evenodd" d="M17.9886 6.47248C18.1989 6.47248 18.3973 6.55876 18.5438 6.70503C18.6903 6.85503 18.7724 7.05751 18.7686 7.26372C18.7314 9.49876 18.6448 11.2088 18.4838 12.5625C18.3265 13.9163 18.0903 14.9212 17.7341 15.735C17.4941 16.2788 17.1973 16.7288 16.8486 17.1112C16.38 17.6175 15.8438 17.985 15.2589 18.3338C15.0088 18.4833 14.7486 18.631 14.4758 18.7859C13.8941 19.1164 13.2537 19.4799 12.5286 19.965C12.2665 20.1412 11.9248 20.1412 11.6627 19.965C10.9263 19.4742 10.2777 19.1063 9.69032 18.7731C9.56021 18.699 9.43263 18.6267 9.30758 18.555C8.62105 18.1575 8.00274 17.7788 7.46273 17.2312C7.10274 16.8712 6.79136 16.4325 6.54378 15.9112C6.20652 15.2137 5.97727 14.37 5.80863 13.2788C5.58379 11.82 5.47137 9.91124 5.43032 7.26372C5.42653 7.05751 5.50484 6.85503 5.65137 6.70503C5.79726 6.55876 6 6.47248 6.21031 6.47248H6.53242C7.52653 6.47627 9.72 6.37876 11.6173 4.90126C11.8989 4.68375 12.2924 4.68375 12.5741 4.90126C14.4714 6.37876 16.6648 6.47627 17.6627 6.47248H17.9886ZM16.2448 15.2363C16.4886 14.7337 16.6914 14.04 16.8448 13.0425C17.0286 11.85 17.1411 10.23 17.1941 8.02503C16.0238 7.99124 14.0141 7.76627 12.0973 6.47627C10.1811 7.76248 8.17137 7.98751 7.00485 8.02503C7.04653 9.84751 7.12863 11.265 7.26 12.3788C7.41031 13.6463 7.62379 14.505 7.89031 15.1088C8.06652 15.51 8.26106 15.7988 8.49411 16.0537C8.80485 16.395 9.19895 16.6763 9.73516 16.9988C9.95748 17.1322 10.2025 17.271 10.4697 17.4222C10.9453 17.6914 11.4897 17.9996 12.0973 18.3863C12.6941 18.0059 13.2309 17.7008 13.7008 17.4336C13.8423 17.3531 13.9781 17.276 14.1076 17.2012C14.7676 16.8225 15.2552 16.5075 15.6189 16.14C15.8627 15.8888 16.061 15.615 16.2448 15.2363Z" fill="#3375BB"/>
</svg>
