<svg width="24" height="24" viewBox="0 0 24 24" fill="none" xmlns="http://www.w3.org/2000/svg">
<rect width="24" height="24" rx="6" fill="#3B99FC"/>
<path d="M7.19144 8.89191C9.8473 6.23606 14.1533 6.23606 16.8091 8.89191L17.1288 9.21155C17.2616 9.34434 17.2616 9.55964 17.1288 9.69243L16.0354 10.7858C15.969 10.8522 15.8613 10.8522 15.7949 10.7858L15.3551 10.346C13.5023 8.4932 10.4983 8.4932 8.64552 10.346L8.17447 10.817C8.10807 10.8834 8.00042 10.8834 7.93403 10.817L6.84062 9.72363C6.70782 9.59083 6.70782 9.37553 6.84062 9.24274L7.19144 8.89191ZM19.0704 11.1532L20.0435 12.1263C20.1763 12.2591 20.1763 12.4744 20.0435 12.6072L15.6556 16.9952C15.5228 17.128 15.3075 17.128 15.1747 16.9952C15.1747 16.9952 15.1747 16.9952 15.1747 16.9952L12.0604 13.8809C12.0272 13.8477 11.9734 13.8477 11.9402 13.8809C11.9402 13.8809 11.9402 13.8809 11.9402 13.8809L8.82597 16.9952C8.69318 17.128 8.47788 17.128 8.34508 16.9952C8.34508 16.9952 8.34508 16.9952 8.34508 16.9952L3.95702 12.6072C3.82422 12.4744 3.82422 12.2591 3.95702 12.1263L4.93016 11.1531C5.06295 11.0204 5.27825 11.0204 5.41104 11.1531L8.52538 14.2675C8.55858 14.3007 8.6124 14.3007 8.6456 14.2675C8.6456 14.2675 8.6456 14.2675 8.6456 14.2675L11.7598 11.1531C11.8926 11.0203 12.1079 11.0203 12.2407 11.1531C12.2407 11.1531 12.2407 11.1531 12.2407 11.1531L15.355 14.2675C15.3882 14.3007 15.442 14.3007 15.4752 14.2675L18.5895 11.1532C18.7223 11.0204 18.9376 11.0204 19.0704 11.1532Z" fill="white"/>
</svg>
