<svg width="133" height="23" viewBox="0 0 133 23" fill="none" xmlns="http://www.w3.org/2000/svg">
<path d="M0.264 5.764H3.984L4.92 10.564C5.16 11.788 5.4 13.084 5.592 14.428H5.64C5.88 13.084 6.216 11.74 6.504 10.588L7.752 5.764H10.632L11.808 10.444C12.12 11.764 12.432 13.084 12.672 14.428H12.72C12.888 13.084 13.128 11.764 13.392 10.42L14.4 5.764H17.976L14.376 17.5H10.944L9.84 13.372C9.552 12.22 9.336 11.164 9.096 9.724H9.048C8.832 11.188 8.592 12.268 8.28 13.372L7.104 17.5H3.672L0.264 5.764ZM27.0514 0.459999H30.6994V13.996C30.6994 15.316 30.7474 16.708 30.7954 17.5H27.5554L27.3874 15.772H27.3394C26.5954 17.092 25.1794 17.764 23.6674 17.764C20.8834 17.764 18.6514 15.388 18.6514 11.74C18.6274 7.78 21.0994 5.5 23.9074 5.5C25.3474 5.5 26.4754 6.004 27.0034 6.82H27.0514V0.459999ZM27.0514 12.268V10.732C27.0514 10.54 27.0274 10.276 27.0034 10.084C26.7874 9.1 25.9954 8.284 24.8674 8.284C23.2114 8.284 22.3474 9.772 22.3474 11.62C22.3474 13.612 23.3314 14.86 24.8434 14.86C25.8994 14.86 26.7394 14.14 26.9554 13.108C27.0274 12.844 27.0514 12.58 27.0514 12.268ZM32.3003 5.764H36.3563L38.1083 11.524C38.3003 12.22 38.5403 13.084 38.6843 13.708H38.7563C38.9243 13.084 39.1163 12.196 39.2843 11.524L40.7243 5.764H44.6363L41.9003 13.492C40.2203 18.148 39.0923 20.02 37.7723 21.196C36.5003 22.3 35.1562 22.684 34.2443 22.804L33.4763 19.708C33.9323 19.636 34.5083 19.42 35.0603 19.084C35.6123 18.796 36.2123 18.22 36.5723 17.62C36.6923 17.452 36.7643 17.26 36.7643 17.092C36.7643 16.972 36.7403 16.78 36.5963 16.492L32.3003 5.764ZM46.1828 17.5V9.508C46.1828 8.044 46.1348 6.796 46.0868 5.764H49.1588L49.3268 7.348H49.3988C49.9028 6.604 50.9348 5.5 52.9508 5.5C54.4628 5.5 55.6628 6.268 56.1668 7.492H56.2148C56.6468 6.892 57.1748 6.412 57.7268 6.076C58.3748 5.692 59.0948 5.5 59.9588 5.5C62.2148 5.5 63.9188 7.084 63.9188 10.588V17.5H60.3668V11.116C60.3668 9.412 59.8148 8.428 58.6388 8.428C57.7988 8.428 57.1988 9.004 56.9588 9.7C56.8628 9.964 56.8148 10.348 56.8148 10.636V17.5H53.2628V10.924C53.2628 9.436 52.7348 8.428 51.5828 8.428C50.6468 8.428 50.0948 9.148 49.8788 9.748C49.7588 10.036 49.7348 10.372 49.7348 10.66V17.5H46.1828ZM83.1308 14.188L83.6828 17.044C83.0108 17.38 81.4988 17.74 79.5308 17.74C73.9388 17.74 71.0588 14.26 71.0588 9.652C71.0588 4.132 74.9948 1.06 79.8908 1.06C81.7868 1.06 83.2268 1.444 83.8748 1.78L83.1308 4.684C82.3868 4.372 81.3548 4.084 80.0588 4.084C77.1548 4.084 74.8988 5.836 74.8988 9.436C74.8988 12.676 76.8188 14.716 80.0828 14.716C81.1868 14.716 82.4108 14.476 83.1308 14.188ZM85.8859 17.5V0.459999H89.5339V17.5H85.8859ZM96.1433 17.5H92.4953V5.764H96.1433V17.5ZM94.3193 0.651999C95.4953 0.651999 96.2393 1.444 96.2633 2.5C96.2633 3.508 95.4953 4.324 94.2953 4.324C93.1433 4.324 92.3753 3.508 92.3993 2.5C92.3753 1.444 93.1433 0.651999 94.3193 0.651999ZM109.449 12.796H101.889C102.009 14.308 103.497 15.028 105.201 15.028C106.449 15.028 107.457 14.86 108.441 14.548L108.921 17.02C107.721 17.5 106.257 17.74 104.673 17.74C100.689 17.74 98.4092 15.436 98.4092 11.764C98.4092 8.788 100.257 5.5 104.337 5.5C108.129 5.5 109.569 8.452 109.569 11.356C109.569 11.98 109.497 12.532 109.449 12.796ZM101.865 10.3H106.185C106.185 9.412 105.801 7.924 104.121 7.924C102.585 7.924 101.961 9.316 101.865 10.3ZM111.761 17.5V9.508C111.761 8.044 111.713 6.796 111.665 5.764H114.833L115.001 7.372H115.073C115.553 6.628 116.753 5.5 118.697 5.5C121.097 5.5 122.897 7.084 122.897 10.54V17.5H119.249V10.996C119.249 9.484 118.721 8.452 117.401 8.452C116.393 8.452 115.793 9.148 115.553 9.82C115.457 10.036 115.409 10.396 115.409 10.732V17.5H111.761ZM126.187 3.22L129.763 2.404V5.764H132.379V8.452H129.763V12.7C129.763 14.116 130.099 14.764 131.203 14.764C131.659 14.764 132.019 14.716 132.283 14.668L132.307 17.428C131.827 17.62 130.963 17.74 129.931 17.74C128.755 17.74 127.771 17.332 127.195 16.732C126.523 16.036 126.187 14.908 126.187 13.252V8.452H124.627V5.764H126.187V3.22Z" fill="white"/>
</svg>
