<svg width="24" height="24" viewBox="0 0 24 24" fill="none" xmlns="http://www.w3.org/2000/svg">
<g clip-path="url(#clip0_6_6659)">
<path d="M22.1643 5.65593C21.4008 5.99362 20.5912 6.2154 19.7623 6.31393C20.636 5.79136 21.29 4.96894 21.6023 3.99993C20.7823 4.48793 19.8833 4.82993 18.9463 5.01493C18.3169 4.34151 17.4826 3.89489 16.5732 3.74451C15.6638 3.59413 14.7302 3.74842 13.9175 4.18338C13.1048 4.61834 12.4586 5.30961 12.0794 6.14972C11.7001 6.98983 11.609 7.93171 11.8202 8.82893C10.1574 8.74558 8.53058 8.31345 7.04554 7.56059C5.56049 6.80773 4.25038 5.75097 3.20025 4.45893C2.82854 5.09738 2.63321 5.82315 2.63425 6.56193C2.63425 8.01193 3.37225 9.29293 4.49425 10.0429C3.83026 10.022 3.18088 9.84271 2.60025 9.51993V9.57193C2.60045 10.5376 2.93462 11.4735 3.5461 12.221C4.15758 12.9684 5.00873 13.4814 5.95525 13.6729C5.33886 13.84 4.69256 13.8646 4.06525 13.7449C4.33212 14.5762 4.85226 15.3031 5.55284 15.824C6.25343 16.3449 7.09938 16.6337 7.97225 16.6499C7.10473 17.3313 6.11143 17.8349 5.04913 18.1321C3.98683 18.4293 2.87638 18.5142 1.78125 18.3819C3.69295 19.6114 5.91835 20.264 8.19125 20.2619C15.8842 20.2619 20.0913 13.8889 20.0913 8.36193C20.0913 8.18193 20.0863 7.99993 20.0783 7.82193C20.8971 7.23009 21.6038 6.49695 22.1653 5.65693L22.1643 5.65593Z" fill="white"/>
</g>
<defs>
<clipPath id="clip0_6_6659">
<rect width="24" height="24" fill="white"/>
</clipPath>
</defs>
</svg>
