<svg width="20" height="20" viewBox="0 0 20 20" fill="none" xmlns="http://www.w3.org/2000/svg">
<path d="M10 20C4.47715 20 0 15.5228 0 10C0 4.47715 4.47715 0 10 0C15.5228 0 20 4.47715 20 10C20 15.5228 15.5228 20 10 20ZM10 18C14.4183 18 18 14.4183 18 10C18 5.58172 14.4183 2 10 2C5.58172 2 2 5.58172 2 10C2 14.4183 5.58172 18 10 18ZM10 8.5858L12.8284 5.75736L14.2426 7.17157L11.4142 10L14.2426 12.8284L12.8284 14.2426L10 11.4142L7.17157 14.2426L5.75736 12.8284L8.5858 10L5.75736 7.17157L7.17157 5.75736L10 8.5858Z" fill="white"/>
</svg>
