<svg width="25" height="25" viewBox="0 0 25 25" fill="none" xmlns="http://www.w3.org/2000/svg">
<path d="M7.4998 6.15698V3.15698C7.4998 2.6047 7.94752 2.15698 8.4998 2.15698H20.4998C21.0521 2.15698 21.4998 2.6047 21.4998 3.15698V17.157C21.4998 17.7093 21.0521 18.157 20.4998 18.157H17.4998V21.1561C17.4998 21.7089 17.0499 22.157 16.493 22.157H4.50666C3.95059 22.157 3.5 21.7124 3.5 21.1561L3.5026 7.15785C3.5027 6.60509 3.95264 6.15698 4.50942 6.15698H7.4998ZM5.50242 8.15698L5.50019 20.157H15.4998V8.15698H5.50242ZM9.4998 6.15698H17.4998V16.157H19.4998V4.15698H9.4998V6.15698Z" fill="#FBFAFA" fill-opacity="0.98"/>
</svg>
