<svg width="20" height="20" viewBox="0 0 20 20" fill="none" xmlns="http://www.w3.org/2000/svg">
<path d="M12.5036 1.66895C14.3445 1.66895 15.8369 3.16133 15.8369 5.00228C15.8369 5.6098 15.6743 6.17937 15.3904 6.66987L19.1703 6.66894V8.3356H17.5036V16.6689C17.5036 17.1292 17.1305 17.5023 16.6703 17.5023H3.33691C2.87668 17.5023 2.50358 17.1292 2.50358 16.6689V8.3356H0.836914V6.66894L4.61672 6.66987C4.33278 6.17937 4.17025 5.6098 4.17025 5.00228C4.17025 3.16133 5.66263 1.66895 7.50358 1.66895C8.4996 1.66895 9.3936 2.10579 10.0043 2.79833C10.6136 2.10579 11.5076 1.66895 12.5036 1.66895ZM9.17026 8.3356H4.17025V15.8356H9.17026V8.3356ZM15.8369 8.3356H10.8369V15.8356H15.8369V8.3356ZM7.50358 3.33561C6.58311 3.33561 5.83691 4.0818 5.83691 5.00228C5.83691 5.88091 6.51681 6.60075 7.3792 6.66437L7.50358 6.66894H9.17026V5.00228C9.17026 4.16757 8.55668 3.47619 7.7559 3.35459L7.62797 3.34018L7.50358 3.33561ZM12.5036 3.33561C11.6249 3.33561 10.9051 4.01551 10.8415 4.8779L10.8369 5.00228V6.66894H12.5036C13.3822 6.66894 14.102 5.98905 14.1657 5.12666L14.1703 5.00228C14.1703 4.0818 13.4241 3.33561 12.5036 3.33561Z" fill="white"/>
</svg>
