<svg width="25" height="25" viewBox="0 0 25 25" fill="none" xmlns="http://www.w3.org/2000/svg">
<path d="M11.2577 12.1614L19.1066 4.3125L20.5208 5.72671L19.1066 7.14092L21.5815 9.6158L20.1673 11.03L17.6924 8.55514L16.2782 9.96935L18.3995 12.0907L16.9853 13.5049L14.864 11.3836L12.6719 13.5756C13.9581 15.517 13.746 18.1584 12.0355 19.8688C10.0829 21.8215 6.91709 21.8215 4.96447 19.8688C3.01184 17.9162 3.01184 14.7504 4.96447 12.7978C6.67493 11.0873 9.31633 10.8752 11.2577 12.1614ZM10.6213 18.4546C11.7929 17.283 11.7929 15.3836 10.6213 14.212C9.44975 13.0404 7.55025 13.0404 6.37868 14.212C5.20711 15.3836 5.20711 17.283 6.37868 18.4546C7.55025 19.6262 9.44975 19.6262 10.6213 18.4546Z" fill="white"/>
</svg>
