<svg width="20" height="20" viewBox="0 0 20 20" fill="none" xmlns="http://www.w3.org/2000/svg">
<path fill-rule="evenodd" clip-rule="evenodd" d="M6.46591 1.66675L7.50033 1.66675C7.96056 1.66675 8.33366 2.03984 8.33366 2.50008C8.33366 2.96032 7.96056 3.33342 7.50033 3.33342H6.50033C5.78651 3.33342 5.30127 3.33406 4.92619 3.36471C4.56085 3.39456 4.37401 3.44866 4.24368 3.51507C3.93007 3.67486 3.67511 3.92983 3.51532 4.24343C3.44891 4.37376 3.3948 4.5606 3.36495 4.92595C3.33431 5.30102 3.33366 5.78627 3.33366 6.50008V13.5001C3.33366 14.2139 3.33431 14.6991 3.36495 15.0742C3.3948 15.4396 3.44891 15.6264 3.51532 15.7567C3.6751 16.0703 3.93007 16.3253 4.24368 16.4851C4.37401 16.5515 4.56085 16.6056 4.92619 16.6355C5.30127 16.6661 5.78651 16.6667 6.50033 16.6667H7.50033C7.96056 16.6667 8.33366 17.0398 8.33366 17.5001C8.33366 17.9603 7.96056 18.3334 7.50033 18.3334H6.46589C5.79509 18.3334 5.24146 18.3334 4.79047 18.2966C4.32206 18.2583 3.89147 18.1762 3.48702 17.9701C2.85982 17.6505 2.34988 17.1406 2.0303 16.5134C1.82423 16.1089 1.74209 15.6784 1.70382 15.2099C1.66697 14.7589 1.66698 14.2053 1.66699 13.5345V6.46567C1.66698 5.79486 1.66697 5.24122 1.70382 4.79023C1.74209 4.32181 1.82423 3.89123 2.03031 3.48678C2.34988 2.85957 2.85982 2.34964 3.48703 2.03006C3.89147 1.82398 4.32206 1.74185 4.79047 1.70358C5.24147 1.66673 5.7951 1.66674 6.46591 1.66675ZM12.7444 5.24416C13.0698 4.91872 13.5975 4.91872 13.9229 5.24416L18.0896 9.41083C18.415 9.73626 18.415 10.2639 18.0896 10.5893L13.9229 14.756C13.5975 15.0814 13.0698 15.0814 12.7444 14.756C12.419 14.4306 12.419 13.9029 12.7444 13.5775L15.4885 10.8334H7.50033C7.04009 10.8334 6.66699 10.4603 6.66699 10.0001C6.66699 9.53984 7.04009 9.16675 7.50033 9.16675H15.4885L12.7444 6.42267C12.419 6.09723 12.419 5.5696 12.7444 5.24416Z" fill="white"/>
</svg>
