<svg width="25" height="24" viewBox="0 0 25 24" fill="none" xmlns="http://www.w3.org/2000/svg">
<path d="M13.5609 8.11097L14.9751 9.52518C17.7088 12.2589 17.7088 16.691 14.9751 19.4247L14.6216 19.7782C11.8879 22.5119 7.4558 22.5119 4.72213 19.7782C1.98846 17.0446 1.98846 12.6124 4.72213 9.87874L6.13635 11.293C4.18373 13.2456 4.18373 16.4114 6.13635 18.364C8.08897 20.3166 11.2547 20.3166 13.2074 18.364L13.5609 18.0105C15.5135 16.0578 15.5135 12.892 13.5609 10.9394L12.1467 9.52518L13.5609 8.11097ZM20.2784 14.1214L18.8642 12.7072C20.8168 10.7545 20.8168 7.58872 18.8642 5.6361C16.9116 3.68348 13.7458 3.68348 11.7932 5.6361L11.4396 5.98965C9.48703 7.94227 9.48703 11.1081 11.4396 13.0607L12.8538 14.4749L11.4396 15.8891L10.0254 14.4749C7.29176 11.7413 7.29176 7.30911 10.0254 4.57544L10.379 4.22188C13.1126 1.48821 17.5448 1.48821 20.2784 4.22188C23.0121 6.95555 23.0121 11.3877 20.2784 14.1214Z" fill="white"/>
</svg>
