<svg width="20" height="20" viewBox="0 0 20 20" fill="none" xmlns="http://www.w3.org/2000/svg">
<g id="Xnix/Line/Dashboard 6">
<path id="Icon (Stroke)" fill-rule="evenodd" clip-rule="evenodd" d="M10.0003 3.33341C8.3895 3.33341 7.08366 4.63925 7.08366 6.25008C7.08366 7.86091 8.3895 9.16675 10.0003 9.16675C11.6112 9.16675 12.917 7.86091 12.917 6.25008C12.917 4.63925 11.6112 3.33341 10.0003 3.33341ZM5.41699 6.25008C5.41699 3.71878 7.46902 1.66675 10.0003 1.66675C12.5316 1.66675 14.5837 3.71878 14.5837 6.25008C14.5837 8.78139 12.5316 10.8334 10.0003 10.8334C7.46902 10.8334 5.41699 8.78139 5.41699 6.25008ZM10.0003 14.1667C7.341 14.1667 4.91143 15.3242 3.10666 17.2384C2.79094 17.5733 2.26353 17.5888 1.92866 17.2731C1.59379 16.9574 1.57827 16.4299 1.894 16.0951C3.98221 13.8802 6.83802 12.5001 10.0003 12.5001C13.1626 12.5001 16.0184 13.8802 18.1067 16.0951C18.4224 16.4299 18.4069 16.9574 18.072 17.2731C17.7371 17.5888 17.2097 17.5733 16.894 17.2384C15.0892 15.3242 12.6597 14.1667 10.0003 14.1667Z" fill="white"/>
</g>
</svg>
